<svg xmlns="http://www.w3.org/2000/svg" xmlns:xlink="http://www.w3.org/1999/xlink" viewBox="0 0 60.3 60.3"><defs><style>.cls-1{fill:url(#Degradado_sin_nombre_38);}.cls-2{fill:url(#Degradado_sin_nombre_27);}</style><linearGradient id="Degradado_sin_nombre_38" x1="4.03" y1="15.07" x2="56.27" y2="45.23" gradientUnits="userSpaceOnUse"><stop offset="0.06" stop-color="#addcf7"></stop><stop offset="0.13" stop-color="#95caec"></stop><stop offset="0.24" stop-color="#72afdc"></stop><stop offset="0.36" stop-color="#5698cf"></stop><stop offset="0.49" stop-color="#3f87c5"></stop><stop offset="0.63" stop-color="#2f7bbe"></stop><stop offset="0.78" stop-color="#2673b9"></stop><stop offset="1" stop-color="#2371b8"></stop></linearGradient><linearGradient id="Degradado_sin_nombre_27" x1="35.96" y1="36.14" x2="44.41" y2="44.59" gradientUnits="userSpaceOnUse"><stop offset="0" stop-color="#ffdc64"></stop><stop offset="0.55" stop-color="#fdc745"></stop><stop offset="1" stop-color="#fbb930"></stop></linearGradient></defs><g id="Capa_2" data-name="Capa 2"><g id="Capa_1-2" data-name="Capa 1"><path class="cls-1" d="M32,.06Q31.1,0,30.15,0a30.15,30.15,0,0,0,0,60.3c1,0,1.9,0,2.83-.13A30.16,30.16,0,0,1,5.18,35.38,30.2,30.2,0,0,1,5,25.62a25.51,25.51,0,0,1,50.62,4.53c0,.44,0,.89,0,1.32A25.45,25.45,0,0,1,47.1,49.22q-.74.66-1.53,1.26A16.37,16.37,0,0,1,36,53.64,15.87,15.87,0,0,1,20.08,37.76c0-.24,0-.48,0-.72h0V27.87L30,19.2l8.42,7.07A20.11,20.11,0,0,0,24.72,45.34v0h4.34l.51,0c0-7.94,5.36-14.5,13-15.6a14.91,14.91,0,0,1,2.23-.17V25.22h0L30,13.11,15.29,26V37.76a20.65,20.65,0,0,0,35.5,14.37A30.15,30.15,0,0,0,32,.06Z"></path><path class="cls-2" d="M44.79,31.89v4.35a9.61,9.61,0,0,0-8.19,9.1v0H32.11v0A13.91,13.91,0,0,1,44.79,31.89ZM39.21,45.34v0h4.42v0a1.51,1.51,0,0,1,1.16-1.56v-4.5C41.89,39.28,39.21,42.17,39.21,45.34Z"></path></g></g></svg>